<?xml version="1.0" encoding="UTF-8" standalone="no"?>
<!DOCTYPE svg PUBLIC "-//W3C//DTD SVG 1.1//EN"
 "http://www.w3.org/Graphics/SVG/1.1/DTD/svg11.dtd">
<!-- Generated by graphviz version 2.43.0 (0)
 -->
<!-- Title: %3 Pages: 1 -->
<svg width="2384pt" height="692pt"
 viewBox="0.00 0.00 2383.82 692.00" xmlns="http://www.w3.org/2000/svg" xmlns:xlink="http://www.w3.org/1999/xlink">
<g id="graph0" class="graph" transform="scale(1 1) rotate(0) translate(4 688)">
<title>%3</title>
<polygon fill="white" stroke="transparent" points="-4,4 -4,-688 2379.82,-688 2379.82,4 -4,4"/>
<!-- [root] module.container.docker_container.container (expand) -->
<g id="node1" class="node">
<title>[root] module.container.docker_container.container (expand)</title>
<polygon fill="none" stroke="black" points="1810.93,-540 1548.93,-540 1548.93,-504 1810.93,-504 1810.93,-540"/>
<text text-anchor="middle" x="1679.93" y="-518.3" font-family="Times,serif" font-size="14.00">module.container.docker_container.container</text>
</g>
<!-- [root] module.container.docker_volume.volume (expand) -->
<g id="node2" class="node">
<title>[root] module.container.docker_volume.volume (expand)</title>
<polygon fill="none" stroke="black" points="1214.43,-468 969.43,-468 969.43,-432 1214.43,-432 1214.43,-468"/>
<text text-anchor="middle" x="1091.93" y="-446.3" font-family="Times,serif" font-size="14.00">module.container.docker_volume.volume</text>
</g>
<!-- [root] module.container.docker_container.container (expand)&#45;&gt;[root] module.container.docker_volume.volume (expand) -->
<g id="edge5" class="edge">
<title>[root] module.container.docker_container.container (expand)&#45;&gt;[root] module.container.docker_volume.volume (expand)</title>
<path fill="none" stroke="black" d="M1548.71,-505.38C1452.27,-493.9 1321.72,-478.36 1224.88,-466.83"/>
<polygon fill="black" stroke="black" points="1225.07,-463.32 1214.73,-465.62 1224.24,-470.28 1225.07,-463.32"/>
</g>
<!-- [root] module.container.var.ext_port (expand) -->
<g id="node12" class="node">
<title>[root] module.container.var.ext_port (expand)</title>
<ellipse fill="none" stroke="black" cx="2202.93" cy="-378" rx="172.77" ry="18"/>
<text text-anchor="middle" x="2202.93" y="-374.3" font-family="Times,serif" font-size="14.00">[root] module.container.var.ext_port (expand)</text>
</g>
<!-- [root] module.container.docker_container.container (expand)&#45;&gt;[root] module.container.var.ext_port (expand) -->
<g id="edge6" class="edge">
<title>[root] module.container.docker_container.container (expand)&#45;&gt;[root] module.container.var.ext_port (expand)</title>
<path fill="none" stroke="black" d="M1811.05,-515.11C1951.08,-507.59 2156.67,-492.53 2183.93,-468 2200.86,-452.77 2204.75,-426.49 2204.92,-406.42"/>
<polygon fill="black" stroke="black" points="2208.42,-406.22 2204.7,-396.3 2201.42,-406.37 2208.42,-406.22"/>
</g>
<!-- [root] module.container.var.image_in (expand) -->
<g id="node13" class="node">
<title>[root] module.container.var.image_in (expand)</title>
<ellipse fill="none" stroke="black" cx="1577.93" cy="-450" rx="176.57" ry="18"/>
<text text-anchor="middle" x="1577.93" y="-446.3" font-family="Times,serif" font-size="14.00">[root] module.container.var.image_in (expand)</text>
</g>
<!-- [root] module.container.docker_container.container (expand)&#45;&gt;[root] module.container.var.image_in (expand) -->
<g id="edge7" class="edge">
<title>[root] module.container.docker_container.container (expand)&#45;&gt;[root] module.container.var.image_in (expand)</title>
<path fill="none" stroke="black" d="M1654.98,-503.88C1641.79,-494.83 1625.43,-483.6 1611.18,-473.82"/>
<polygon fill="black" stroke="black" points="1612.85,-470.72 1602.63,-467.95 1608.89,-476.49 1612.85,-470.72"/>
</g>
<!-- [root] module.container.var.int_port (expand) -->
<g id="node14" class="node">
<title>[root] module.container.var.int_port (expand)</title>
<ellipse fill="none" stroke="black" cx="1801.93" cy="-306" rx="171.67" ry="18"/>
<text text-anchor="middle" x="1801.93" y="-302.3" font-family="Times,serif" font-size="14.00">[root] module.container.var.int_port (expand)</text>
</g>
<!-- [root] module.container.docker_container.container (expand)&#45;&gt;[root] module.container.var.int_port (expand) -->
<g id="edge8" class="edge">
<title>[root] module.container.docker_container.container (expand)&#45;&gt;[root] module.container.var.int_port (expand)</title>
<path fill="none" stroke="black" d="M1720.42,-503.78C1736.17,-495.18 1753.02,-483.3 1763.93,-468 1792.69,-427.71 1799.95,-368.7 1801.62,-334.43"/>
<polygon fill="black" stroke="black" points="1805.13,-334.35 1801.99,-324.23 1798.13,-334.1 1805.13,-334.35"/>
</g>
<!-- [root] module.container.var.volume_in (expand) -->
<g id="node15" class="node">
<title>[root] module.container.var.volume_in (expand)</title>
<ellipse fill="none" stroke="black" cx="1992.93" cy="-450" rx="181.97" ry="18"/>
<text text-anchor="middle" x="1992.93" y="-446.3" font-family="Times,serif" font-size="14.00">[root] module.container.var.volume_in (expand)</text>
</g>
<!-- [root] module.container.docker_container.container (expand)&#45;&gt;[root] module.container.var.volume_in (expand) -->
<g id="edge9" class="edge">
<title>[root] module.container.docker_container.container (expand)&#45;&gt;[root] module.container.var.volume_in (expand)</title>
<path fill="none" stroke="black" d="M1756.1,-503.97C1803.67,-493.33 1864.83,-479.65 1913.08,-468.86"/>
<polygon fill="black" stroke="black" points="1913.87,-472.27 1922.86,-466.67 1912.34,-465.44 1913.87,-472.27"/>
</g>
<!-- [root] module.container.random_string.random (expand) -->
<g id="node3" class="node">
<title>[root] module.container.random_string.random (expand)</title>
<polygon fill="none" stroke="black" points="853.93,-396 613.93,-396 613.93,-360 853.93,-360 853.93,-396"/>
<text text-anchor="middle" x="733.93" y="-374.3" font-family="Times,serif" font-size="14.00">module.container.random_string.random</text>
</g>
<!-- [root] module.container.docker_volume.volume (expand)&#45;&gt;[root] module.container.random_string.random (expand) -->
<g id="edge10" class="edge">
<title>[root] module.container.docker_volume.volume (expand)&#45;&gt;[root] module.container.random_string.random (expand)</title>
<path fill="none" stroke="black" d="M1004.81,-431.97C952.3,-421.7 885.32,-408.6 831.1,-398"/>
<polygon fill="black" stroke="black" points="831.62,-394.53 821.13,-396.05 830.28,-401.4 831.62,-394.53"/>
</g>
<!-- [root] provider[&quot;registry.terraform.io/kreuzwerker/docker&quot;] -->
<g id="node6" class="node">
<title>[root] provider[&quot;registry.terraform.io/kreuzwerker/docker&quot;]</title>
<polygon fill="none" stroke="black" points="957.93,-180 677.75,-162 957.93,-144 1238.12,-162 957.93,-180"/>
<text text-anchor="middle" x="957.93" y="-158.3" font-family="Times,serif" font-size="14.00">provider[&quot;registry.terraform.io/kreuzwerker/docker&quot;]</text>
</g>
<!-- [root] module.container.docker_volume.volume (expand)&#45;&gt;[root] provider[&quot;registry.terraform.io/kreuzwerker/docker&quot;] -->
<g id="edge12" class="edge">
<title>[root] module.container.docker_volume.volume (expand)&#45;&gt;[root] provider[&quot;registry.terraform.io/kreuzwerker/docker&quot;]</title>
<path fill="none" stroke="black" d="M1024.78,-431.89C1006.44,-423.96 988.46,-412.49 976.93,-396 933.03,-333.2 943.55,-236.31 952.1,-189.76"/>
<polygon fill="black" stroke="black" points="955.55,-190.32 954.03,-179.84 948.68,-188.98 955.55,-190.32"/>
</g>
<!-- [root] module.container.var.name_in (expand) -->
<g id="node16" class="node">
<title>[root] module.container.var.name_in (expand)</title>
<ellipse fill="none" stroke="black" cx="1160.93" cy="-378" rx="174.67" ry="18"/>
<text text-anchor="middle" x="1160.93" y="-374.3" font-family="Times,serif" font-size="14.00">[root] module.container.var.name_in (expand)</text>
</g>
<!-- [root] module.container.docker_volume.volume (expand)&#45;&gt;[root] module.container.var.name_in (expand) -->
<g id="edge11" class="edge">
<title>[root] module.container.docker_volume.volume (expand)&#45;&gt;[root] module.container.var.name_in (expand)</title>
<path fill="none" stroke="black" d="M1108.99,-431.7C1117.43,-423.14 1127.76,-412.66 1136.98,-403.3"/>
<polygon fill="black" stroke="black" points="1139.55,-405.68 1144.07,-396.1 1134.56,-400.77 1139.55,-405.68"/>
</g>
<!-- [root] provider[&quot;registry.terraform.io/hashicorp/random&quot;] -->
<g id="node5" class="node">
<title>[root] provider[&quot;registry.terraform.io/hashicorp/random&quot;]</title>
<polygon fill="none" stroke="black" points="657.93,-324 385.79,-306 657.93,-288 930.07,-306 657.93,-324"/>
<text text-anchor="middle" x="657.93" y="-302.3" font-family="Times,serif" font-size="14.00">provider[&quot;registry.terraform.io/hashicorp/random&quot;]</text>
</g>
<!-- [root] module.container.random_string.random (expand)&#45;&gt;[root] provider[&quot;registry.terraform.io/hashicorp/random&quot;] -->
<g id="edge14" class="edge">
<title>[root] module.container.random_string.random (expand)&#45;&gt;[root] provider[&quot;registry.terraform.io/hashicorp/random&quot;]</title>
<path fill="none" stroke="black" d="M715.15,-359.7C705.31,-350.64 693.15,-339.44 682.57,-329.69"/>
<polygon fill="black" stroke="black" points="684.93,-327.11 675.2,-322.91 680.19,-332.26 684.93,-327.11"/>
</g>
<!-- [root] module.container.var.count_num (expand) -->
<g id="node17" class="node">
<title>[root] module.container.var.count_num (expand)</title>
<ellipse fill="none" stroke="black" cx="183.93" cy="-306" rx="183.87" ry="18"/>
<text text-anchor="middle" x="183.93" y="-302.3" font-family="Times,serif" font-size="14.00">[root] module.container.var.count_num (expand)</text>
</g>
<!-- [root] module.container.random_string.random (expand)&#45;&gt;[root] module.container.var.count_num (expand) -->
<g id="edge13" class="edge">
<title>[root] module.container.random_string.random (expand)&#45;&gt;[root] module.container.var.count_num (expand)</title>
<path fill="none" stroke="black" d="M613.91,-361.72C521.05,-349.91 393.18,-333.63 301.06,-321.91"/>
<polygon fill="black" stroke="black" points="301.5,-318.43 291.13,-320.64 300.61,-325.38 301.5,-318.43"/>
</g>
<!-- [root] module.image.docker_image.image (expand) -->
<g id="node4" class="node">
<title>[root] module.image.docker_image.image (expand)</title>
<polygon fill="none" stroke="black" points="1497.93,-252 1283.93,-252 1283.93,-216 1497.93,-216 1497.93,-252"/>
<text text-anchor="middle" x="1390.93" y="-230.3" font-family="Times,serif" font-size="14.00">module.image.docker_image.image</text>
</g>
<!-- [root] module.image.docker_image.image (expand)&#45;&gt;[root] provider[&quot;registry.terraform.io/kreuzwerker/docker&quot;] -->
<g id="edge25" class="edge">
<title>[root] module.image.docker_image.image (expand)&#45;&gt;[root] provider[&quot;registry.terraform.io/kreuzwerker/docker&quot;]</title>
<path fill="none" stroke="black" d="M1285.56,-215.97C1211.24,-203.95 1112.95,-188.06 1043.47,-176.83"/>
<polygon fill="black" stroke="black" points="1043.87,-173.35 1033.44,-175.21 1042.75,-180.26 1043.87,-173.35"/>
</g>
<!-- [root] module.image.var.image_name_in (expand) -->
<g id="node21" class="node">
<title>[root] module.image.var.image_name_in (expand)</title>
<ellipse fill="none" stroke="black" cx="1446.93" cy="-162" rx="190.37" ry="18"/>
<text text-anchor="middle" x="1446.93" y="-158.3" font-family="Times,serif" font-size="14.00">[root] module.image.var.image_name_in (expand)</text>
</g>
<!-- [root] module.image.docker_image.image (expand)&#45;&gt;[root] module.image.var.image_name_in (expand) -->
<g id="edge24" class="edge">
<title>[root] module.image.docker_image.image (expand)&#45;&gt;[root] module.image.var.image_name_in (expand)</title>
<path fill="none" stroke="black" d="M1404.78,-215.7C1411.42,-207.39 1419.51,-197.28 1426.82,-188.14"/>
<polygon fill="black" stroke="black" points="1429.74,-190.1 1433.25,-180.1 1424.27,-185.73 1429.74,-190.1"/>
</g>
<!-- [root] var.ext_ports -->
<g id="node7" class="node">
<title>[root] var.ext_ports</title>
<polygon fill="none" stroke="black" points="1824.43,-108 1743.43,-108 1743.43,-72 1830.43,-72 1830.43,-102 1824.43,-108"/>
<polyline fill="none" stroke="black" points="1824.43,-108 1824.43,-102 "/>
<polyline fill="none" stroke="black" points="1830.43,-102 1824.43,-102 "/>
<text text-anchor="middle" x="1786.93" y="-86.3" font-family="Times,serif" font-size="14.00">var.ext_ports</text>
</g>
<!-- [root] var.images -->
<g id="node8" class="node">
<title>[root] var.images</title>
<polygon fill="none" stroke="black" points="1582.93,-36 1512.93,-36 1512.93,0 1588.93,0 1588.93,-30 1582.93,-36"/>
<polyline fill="none" stroke="black" points="1582.93,-36 1582.93,-30 "/>
<polyline fill="none" stroke="black" points="1588.93,-30 1582.93,-30 "/>
<text text-anchor="middle" x="1550.93" y="-14.3" font-family="Times,serif" font-size="14.00">var.images</text>
</g>
<!-- [root] local.development (expand) -->
<g id="node9" class="node">
<title>[root] local.development (expand)</title>
<ellipse fill="none" stroke="black" cx="1786.93" cy="-162" rx="131.88" ry="18"/>
<text text-anchor="middle" x="1786.93" y="-158.3" font-family="Times,serif" font-size="14.00">[root] local.development (expand)</text>
</g>
<!-- [root] local.development (expand)&#45;&gt;[root] var.ext_ports -->
<g id="edge1" class="edge">
<title>[root] local.development (expand)&#45;&gt;[root] var.ext_ports</title>
<path fill="none" stroke="black" d="M1786.93,-143.7C1786.93,-135.98 1786.93,-126.71 1786.93,-118.11"/>
<polygon fill="black" stroke="black" points="1790.43,-118.1 1786.93,-108.1 1783.43,-118.1 1790.43,-118.1"/>
</g>
<!-- [root] local.development (expand)&#45;&gt;[root] var.images -->
<g id="edge2" class="edge">
<title>[root] local.development (expand)&#45;&gt;[root] var.images</title>
<path fill="none" stroke="black" d="M1758.93,-144.15C1716.38,-118.55 1635.37,-69.81 1587.99,-41.29"/>
<polygon fill="black" stroke="black" points="1589.64,-38.2 1579.26,-36.05 1586.03,-44.2 1589.64,-38.2"/>
</g>
<!-- [root] module.container (close) -->
<g id="node10" class="node">
<title>[root] module.container (close)</title>
<ellipse fill="none" stroke="black" cx="1292.93" cy="-594" rx="121.58" ry="18"/>
<text text-anchor="middle" x="1292.93" y="-590.3" font-family="Times,serif" font-size="14.00">[root] module.container (close)</text>
</g>
<!-- [root] module.container (close)&#45;&gt;[root] module.container.docker_container.container (expand) -->
<g id="edge3" class="edge">
<title>[root] module.container (close)&#45;&gt;[root] module.container.docker_container.container (expand)</title>
<path fill="none" stroke="black" d="M1366.64,-579.67C1425.88,-568.95 1509.82,-553.77 1575.9,-541.82"/>
<polygon fill="black" stroke="black" points="1576.72,-545.23 1585.94,-540 1575.47,-538.34 1576.72,-545.23"/>
</g>
<!-- [root] module.container (expand) -->
<g id="node11" class="node">
<title>[root] module.container (expand)</title>
<ellipse fill="none" stroke="black" cx="1786.93" cy="-234" rx="128.88" ry="18"/>
<text text-anchor="middle" x="1786.93" y="-230.3" font-family="Times,serif" font-size="14.00">[root] module.container (expand)</text>
</g>
<!-- [root] module.container (expand)&#45;&gt;[root] local.development (expand) -->
<g id="edge4" class="edge">
<title>[root] module.container (expand)&#45;&gt;[root] local.development (expand)</title>
<path fill="none" stroke="black" d="M1786.93,-215.7C1786.93,-207.98 1786.93,-198.71 1786.93,-190.11"/>
<polygon fill="black" stroke="black" points="1790.43,-190.1 1786.93,-180.1 1783.43,-190.1 1790.43,-190.1"/>
</g>
<!-- [root] module.container.var.ext_port (expand)&#45;&gt;[root] module.container (expand) -->
<g id="edge16" class="edge">
<title>[root] module.container.var.ext_port (expand)&#45;&gt;[root] module.container (expand)</title>
<path fill="none" stroke="black" d="M2173.02,-360.26C2136.8,-340.59 2073.47,-308.08 2015.93,-288 1970,-271.97 1917.19,-259.37 1873.86,-250.49"/>
<polygon fill="black" stroke="black" points="1874.42,-247.03 1863.92,-248.49 1873.03,-253.9 1874.42,-247.03"/>
</g>
<!-- [root] module.container.var.image_in (expand)&#45;&gt;[root] module.container (expand) -->
<g id="edge17" class="edge">
<title>[root] module.container.var.image_in (expand)&#45;&gt;[root] module.container (expand)</title>
<path fill="none" stroke="black" d="M1580.38,-431.99C1586.03,-395 1601.02,-308.89 1620.93,-288 1638.44,-269.63 1662.29,-257.61 1686.45,-249.75"/>
<polygon fill="black" stroke="black" points="1687.52,-253.08 1696.07,-246.83 1685.49,-246.39 1687.52,-253.08"/>
</g>
<!-- [root] module.image (close) -->
<g id="node18" class="node">
<title>[root] module.image (close)</title>
<ellipse fill="none" stroke="black" cx="1463.93" cy="-378" rx="110.48" ry="18"/>
<text text-anchor="middle" x="1463.93" y="-374.3" font-family="Times,serif" font-size="14.00">[root] module.image (close)</text>
</g>
<!-- [root] module.container.var.image_in (expand)&#45;&gt;[root] module.image (close) -->
<g id="edge18" class="edge">
<title>[root] module.container.var.image_in (expand)&#45;&gt;[root] module.image (close)</title>
<path fill="none" stroke="black" d="M1550.34,-432.05C1535.1,-422.7 1516.01,-410.98 1499.65,-400.93"/>
<polygon fill="black" stroke="black" points="1501.24,-397.8 1490.88,-395.55 1497.57,-403.76 1501.24,-397.8"/>
</g>
<!-- [root] module.container.var.int_port (expand)&#45;&gt;[root] module.container (expand) -->
<g id="edge19" class="edge">
<title>[root] module.container.var.int_port (expand)&#45;&gt;[root] module.container (expand)</title>
<path fill="none" stroke="black" d="M1798.23,-287.7C1796.57,-279.98 1794.59,-270.71 1792.74,-262.11"/>
<polygon fill="black" stroke="black" points="1796.12,-261.15 1790.6,-252.1 1789.27,-262.62 1796.12,-261.15"/>
</g>
<!-- [root] module.container.var.volume_in (expand)&#45;&gt;[root] module.container (expand) -->
<g id="edge21" class="edge">
<title>[root] module.container.var.volume_in (expand)&#45;&gt;[root] module.container (expand)</title>
<path fill="none" stroke="black" d="M1997.74,-431.66C2005.55,-399.39 2016.93,-329.66 1982.93,-288 1969.34,-271.34 1924.17,-258.52 1880.62,-249.66"/>
<polygon fill="black" stroke="black" points="1881.27,-246.22 1870.78,-247.72 1879.92,-253.09 1881.27,-246.22"/>
</g>
<!-- [root] module.container.var.name_in (expand)&#45;&gt;[root] module.container (expand) -->
<g id="edge20" class="edge">
<title>[root] module.container.var.name_in (expand)&#45;&gt;[root] module.container (expand)</title>
<path fill="none" stroke="black" d="M1163.03,-359.67C1166.55,-338.93 1175.7,-304.89 1198.93,-288 1217.41,-274.57 1495.28,-254.14 1662.33,-242.98"/>
<polygon fill="black" stroke="black" points="1662.93,-246.45 1672.67,-242.29 1662.46,-239.46 1662.93,-246.45"/>
</g>
<!-- [root] module.container.var.count_num (expand)&#45;&gt;[root] module.container (expand) -->
<g id="edge15" class="edge">
<title>[root] module.container.var.count_num (expand)&#45;&gt;[root] module.container (expand)</title>
<path fill="none" stroke="black" d="M310,-292.87C332.28,-291.02 355.28,-289.3 376.93,-288 878.51,-257.94 1004.99,-275.23 1506.93,-252 1558.36,-249.62 1615.07,-246.31 1663.92,-243.24"/>
<polygon fill="black" stroke="black" points="1664.14,-246.73 1673.9,-242.61 1663.7,-239.74 1664.14,-246.73"/>
</g>
<!-- [root] module.image.output.image_out (expand) -->
<g id="node19" class="node">
<title>[root] module.image.output.image_out (expand)</title>
<ellipse fill="none" stroke="black" cx="1390.93" cy="-306" rx="182.77" ry="18"/>
<text text-anchor="middle" x="1390.93" y="-302.3" font-family="Times,serif" font-size="14.00">[root] module.image.output.image_out (expand)</text>
</g>
<!-- [root] module.image (close)&#45;&gt;[root] module.image.output.image_out (expand) -->
<g id="edge22" class="edge">
<title>[root] module.image (close)&#45;&gt;[root] module.image.output.image_out (expand)</title>
<path fill="none" stroke="black" d="M1446.26,-360.05C1437.18,-351.35 1425.96,-340.59 1416.01,-331.04"/>
<polygon fill="black" stroke="black" points="1418.34,-328.43 1408.7,-324.03 1413.49,-333.48 1418.34,-328.43"/>
</g>
<!-- [root] module.image.output.image_out (expand)&#45;&gt;[root] module.image.docker_image.image (expand) -->
<g id="edge26" class="edge">
<title>[root] module.image.output.image_out (expand)&#45;&gt;[root] module.image.docker_image.image (expand)</title>
<path fill="none" stroke="black" d="M1390.93,-287.7C1390.93,-279.98 1390.93,-270.71 1390.93,-262.11"/>
<polygon fill="black" stroke="black" points="1394.43,-262.1 1390.93,-252.1 1387.43,-262.1 1394.43,-262.1"/>
</g>
<!-- [root] module.image (expand) -->
<g id="node20" class="node">
<title>[root] module.image (expand)</title>
<ellipse fill="none" stroke="black" cx="1477.93" cy="-90" rx="118.08" ry="18"/>
<text text-anchor="middle" x="1477.93" y="-86.3" font-family="Times,serif" font-size="14.00">[root] module.image (expand)</text>
</g>
<!-- [root] module.image (expand)&#45;&gt;[root] var.images -->
<g id="edge23" class="edge">
<title>[root] module.image (expand)&#45;&gt;[root] var.images</title>
<path fill="none" stroke="black" d="M1495.6,-72.05C1504.68,-63.35 1515.9,-52.59 1525.86,-43.04"/>
<polygon fill="black" stroke="black" points="1528.38,-45.48 1533.17,-36.03 1523.53,-40.43 1528.38,-45.48"/>
</g>
<!-- [root] module.image.var.image_name_in (expand)&#45;&gt;[root] module.image (expand) -->
<g id="edge27" class="edge">
<title>[root] module.image.var.image_name_in (expand)&#45;&gt;[root] module.image (expand)</title>
<path fill="none" stroke="black" d="M1454.6,-143.7C1458.13,-135.73 1462.39,-126.1 1466.3,-117.26"/>
<polygon fill="black" stroke="black" points="1469.51,-118.67 1470.36,-108.1 1463.11,-115.83 1469.51,-118.67"/>
</g>
<!-- [root] provider[&quot;registry.terraform.io/hashicorp/random&quot;] (close) -->
<g id="node22" class="node">
<title>[root] provider[&quot;registry.terraform.io/hashicorp/random&quot;] (close)</title>
<ellipse fill="none" stroke="black" cx="817.93" cy="-522" rx="241.26" ry="18"/>
<text text-anchor="middle" x="817.93" y="-518.3" font-family="Times,serif" font-size="14.00">[root] provider[&quot;registry.terraform.io/hashicorp/random&quot;] (close)</text>
</g>
<!-- [root] provider[&quot;registry.terraform.io/hashicorp/random&quot;] (close)&#45;&gt;[root] module.container.random_string.random (expand) -->
<g id="edge28" class="edge">
<title>[root] provider[&quot;registry.terraform.io/hashicorp/random&quot;] (close)&#45;&gt;[root] module.container.random_string.random (expand)</title>
<path fill="none" stroke="black" d="M807.8,-503.87C793.23,-479.24 766.25,-433.64 749.25,-404.88"/>
<polygon fill="black" stroke="black" points="752.21,-403.01 744.1,-396.19 746.18,-406.58 752.21,-403.01"/>
</g>
<!-- [root] provider[&quot;registry.terraform.io/kreuzwerker/docker&quot;] (close) -->
<g id="node23" class="node">
<title>[root] provider[&quot;registry.terraform.io/kreuzwerker/docker&quot;] (close)</title>
<ellipse fill="none" stroke="black" cx="1679.93" cy="-594" rx="246.96" ry="18"/>
<text text-anchor="middle" x="1679.93" y="-590.3" font-family="Times,serif" font-size="14.00">[root] provider[&quot;registry.terraform.io/kreuzwerker/docker&quot;] (close)</text>
</g>
<!-- [root] provider[&quot;registry.terraform.io/kreuzwerker/docker&quot;] (close)&#45;&gt;[root] module.container.docker_container.container (expand) -->
<g id="edge29" class="edge">
<title>[root] provider[&quot;registry.terraform.io/kreuzwerker/docker&quot;] (close)&#45;&gt;[root] module.container.docker_container.container (expand)</title>
<path fill="none" stroke="black" d="M1679.93,-575.7C1679.93,-567.98 1679.93,-558.71 1679.93,-550.11"/>
<polygon fill="black" stroke="black" points="1683.43,-550.1 1679.93,-540.1 1676.43,-550.1 1683.43,-550.1"/>
</g>
<!-- [root] root -->
<g id="node24" class="node">
<title>[root] root</title>
<ellipse fill="none" stroke="black" cx="1292.93" cy="-666" rx="47.39" ry="18"/>
<text text-anchor="middle" x="1292.93" y="-662.3" font-family="Times,serif" font-size="14.00">[root] root</text>
</g>
<!-- [root] root&#45;&gt;[root] module.container (close) -->
<g id="edge30" class="edge">
<title>[root] root&#45;&gt;[root] module.container (close)</title>
<path fill="none" stroke="black" d="M1292.93,-647.7C1292.93,-639.98 1292.93,-630.71 1292.93,-622.11"/>
<polygon fill="black" stroke="black" points="1296.43,-622.1 1292.93,-612.1 1289.43,-622.1 1296.43,-622.1"/>
</g>
<!-- [root] root&#45;&gt;[root] provider[&quot;registry.terraform.io/hashicorp/random&quot;] (close) -->
<g id="edge31" class="edge">
<title>[root] root&#45;&gt;[root] provider[&quot;registry.terraform.io/hashicorp/random&quot;] (close)</title>
<path fill="none" stroke="black" d="M1256.84,-654.21C1177.01,-630.35 984.53,-572.8 883.06,-542.47"/>
<polygon fill="black" stroke="black" points="883.81,-539.04 873.23,-539.53 881.81,-545.75 883.81,-539.04"/>
</g>
<!-- [root] root&#45;&gt;[root] provider[&quot;registry.terraform.io/kreuzwerker/docker&quot;] (close) -->
<g id="edge32" class="edge">
<title>[root] root&#45;&gt;[root] provider[&quot;registry.terraform.io/kreuzwerker/docker&quot;] (close)</title>
<path fill="none" stroke="black" d="M1334.72,-657.44C1393.48,-646.81 1502.26,-627.14 1582.06,-612.7"/>
<polygon fill="black" stroke="black" points="1582.91,-616.11 1592.13,-610.88 1581.67,-609.22 1582.91,-616.11"/>
</g>
</g>
</svg>
